<?xml version="1.0" standalone="no"?>
<!DOCTYPE svg PUBLIC "-//W3C//DTD SVG 20010904//EN"
 "http://www.w3.org/TR/2001/REC-SVG-20010904/DTD/svg10.dtd">
<svg version="1.0" xmlns="http://www.w3.org/2000/svg"
 width="512.000000pt" height="512.000000pt" viewBox="0 0 512.000000 512.000000"
 preserveAspectRatio="xMidYMid meet">

<g transform="translate(0.000000,512.000000) scale(0.100000,-0.100000)"
fill="#000000" stroke="none">
<path d="M105 5015 l-25 -24 0 -2431 0 -2431 25 -24 24 -25 1791 0 1791 0 24
25 25 24 0 718 0 717 403 -401 c374 -373 406 -402 460 -422 252 -93 489 144
396 396 -20 54 -50 87 -451 489 l-429 430 26 57 c53 121 69 209 69 372 -1 165
-15 238 -74 376 -66 155 -205 322 -345 415 l-55 37 0 839 0 839 -25 24 -24 25
-1791 0 -1791 0 -24 -25z m3495 -880 c0 -410 -3 -745 -7 -745 -5 0 -42 10 -83
22 -74 22 -86 22 -952 25 l-878 4 0 -81 0 -80 533 0 532 -1 -35 -26 c-19 -15
-73 -65 -120 -113 -157 -160 -246 -354 -266 -582 l-7 -78 -318 0 -319 0 0 -80
0 -80 328 0 328 0 12 -57 c7 -32 15 -68 18 -80 l6 -23 -346 0 -346 0 0 -80 0
-80 384 0 383 0 38 -57 c54 -83 197 -221 285 -275 85 -53 196 -100 296 -125
105 -26 333 -24 441 5 45 12 84 22 87 22 3 0 6 -299 6 -665 l0 -665 -1680 0
-1680 0 0 2320 0 2320 1680 0 1680 0 0 -745z m-130 -879 c208 -56 367 -170
481 -344 239 -364 132 -861 -238 -1102 -311 -204 -727 -161 -992 101 -161 159
-236 340 -236 569 0 174 36 297 125 433 120 185 307 310 525 353 85 16 257 12
335 -10z m633 -1598 l-103 -103 -74 74 -74 73 102 103 101 102 75 -73 75 -74
-102 -102z m282 -78 l60 -60 -103 -103 -102 -102 -62 63 -63 62 100 100 c55
55 102 100 105 100 3 0 32 -27 65 -60z m332 -332 c159 -162 172 -182 158 -254
-8 -45 -64 -101 -111 -110 -70 -13 -99 6 -259 166 l-150 150 100 100 c55 55
102 100 105 100 3 0 74 -69 157 -152z"/>
<path d="M825 4695 c-25 -24 -25 -26 -25 -215 0 -189 0 -191 25 -215 l24 -25
1071 0 1071 0 24 25 c25 24 25 26 25 215 0 189 0 191 -25 215 l-24 25 -1071 0
-1071 0 -24 -25z m2055 -215 l0 -80 -960 0 -960 0 0 80 0 80 960 0 960 0 0
-80z"/>
<path d="M845 4069 c-90 -18 -208 -83 -277 -152 -112 -112 -163 -235 -163
-397 0 -160 51 -285 161 -394 109 -110 234 -161 394 -161 76 0 120 5 160 19
187 63 313 189 376 376 26 76 26 244 0 320 -45 132 -140 256 -243 317 -117 68
-282 97 -408 72z m279 -187 c91 -42 149 -100 194 -190 35 -72 37 -81 37 -172
0 -91 -2 -100 -37 -172 -45 -91 -103 -147 -196 -191 -61 -29 -76 -32 -162 -32
-86 0 -101 3 -162 32 -93 44 -151 100 -196 191 -35 72 -37 81 -37 171 0 87 3
102 32 163 40 85 97 147 172 186 78 42 122 52 213 48 61 -3 92 -11 142 -34z"/>
<path d="M1008 3603 l-128 -128 -48 48 c-26 26 -52 47 -58 47 -13 0 -104 -93
-104 -106 0 -6 40 -49 89 -97 127 -125 114 -128 323 80 92 92 168 172 168 178
0 13 -92 105 -105 105 -6 0 -67 -57 -137 -127z"/>
<path d="M1680 3680 l0 -80 560 0 560 0 0 80 0 80 -560 0 -560 0 0 -80z"/>
<path d="M2960 3680 l0 -80 160 0 160 0 0 80 0 80 -160 0 -160 0 0 -80z"/>
<path d="M845 2789 c-90 -18 -208 -83 -277 -152 -112 -112 -163 -235 -163
-397 0 -160 51 -285 161 -394 109 -110 234 -161 394 -161 76 0 120 5 160 19
187 63 313 189 376 376 26 76 26 244 0 320 -45 132 -140 256 -243 317 -117 68
-282 97 -408 72z m279 -187 c91 -42 149 -100 194 -190 35 -72 37 -81 37 -172
0 -91 -2 -100 -37 -172 -45 -91 -103 -147 -196 -191 -61 -29 -76 -32 -162 -32
-86 0 -101 3 -162 32 -93 44 -151 100 -196 191 -35 72 -37 81 -37 171 0 87 3
102 32 163 40 85 97 147 172 186 78 42 122 52 213 48 61 -3 92 -11 142 -34z"/>
<path d="M1008 2323 l-128 -128 -48 48 c-26 26 -52 47 -58 47 -13 0 -104 -93
-104 -106 0 -6 40 -49 89 -97 127 -125 114 -128 323 80 92 92 168 172 168 178
0 13 -92 105 -105 105 -6 0 -67 -57 -137 -127z"/>
<path d="M845 1509 c-90 -18 -208 -83 -277 -152 -112 -112 -163 -235 -163
-397 0 -160 51 -285 161 -394 109 -110 234 -161 394 -161 115 0 170 14 274 69
115 60 214 183 262 326 26 76 26 244 0 320 -45 132 -140 256 -243 317 -117 68
-282 97 -408 72z m279 -187 c91 -42 149 -100 194 -190 35 -72 37 -81 37 -172
0 -91 -2 -100 -37 -172 -45 -91 -103 -147 -196 -191 -61 -29 -76 -32 -162 -32
-86 0 -101 3 -162 32 -93 44 -151 100 -196 191 -35 72 -37 81 -37 171 0 87 3
102 32 163 40 85 97 147 172 186 78 42 122 52 213 48 61 -3 92 -11 142 -34z"/>
<path d="M1008 1043 l-128 -128 -48 48 c-26 26 -52 47 -58 47 -13 0 -104 -93
-104 -106 0 -6 40 -49 89 -97 127 -125 114 -128 323 80 92 92 168 172 168 178
0 13 -92 105 -105 105 -6 0 -67 -57 -137 -127z"/>
<path d="M1680 1120 l0 -80 560 0 560 0 0 80 0 80 -560 0 -560 0 0 -80z"/>
<path d="M2960 1120 l0 -80 160 0 160 0 0 80 0 80 -160 0 -160 0 0 -80z"/>
<path d="M1680 800 l0 -80 800 0 800 0 0 80 0 80 -800 0 -800 0 0 -80z"/>
<path d="M3205 3031 c-46 -12 -97 -38 -136 -70 -44 -37 -95 -131 -104 -193
l-7 -48 79 0 79 0 12 44 c21 79 102 128 187 112 49 -10 111 -71 120 -119 13
-68 -1 -102 -74 -183 -100 -109 -160 -249 -161 -371 l0 -43 79 0 78 0 6 58 c8
94 40 162 114 244 90 99 118 161 118 258 0 129 -67 235 -183 288 -58 26 -154
37 -207 23z"/>
<path d="M3200 2000 l0 -80 80 0 80 0 0 80 0 80 -80 0 -80 0 0 -80z"/>
</g>
</svg>
