<?xml version="1.0" standalone="no"?>
<!DOCTYPE svg PUBLIC "-//W3C//DTD SVG 20010904//EN"
 "http://www.w3.org/TR/2001/REC-SVG-20010904/DTD/svg10.dtd">
<svg version="1.0" xmlns="http://www.w3.org/2000/svg"
 width="512.000000pt" height="512.000000pt" viewBox="0 0 512.000000 512.000000"
 preserveAspectRatio="xMidYMid meet">

<g transform="translate(0.000000,512.000000) scale(0.100000,-0.100000)"
fill="#000000" stroke="none">
<path d="M1384 4834 c-721 -380 -1215 -1057 -1348 -1849 -181 -1071 338 -2142
1294 -2670 47 -26 100 -53 118 -60 l32 -14 0 2320 c0 1275 -2 2319 -5 2319 -2
0 -43 -21 -91 -46z"/>
<path d="M3640 2560 l0 -2322 116 61 c233 123 446 283 639 482 379 390 613
864 696 1410 31 205 31 533 0 738 -83 546 -317 1020 -696 1410 -193 199 -406
359 -639 482 l-116 61 0 -2322z"/>
<path d="M2468 3273 c-11 -12 -18 -36 -18 -60 0 -33 4 -42 25 -51 14 -7 35
-12 45 -12 11 0 20 -5 20 -11 0 -7 -10 -9 -27 -4 -27 6 -27 6 -8 -9 18 -13 15
-13 -25 0 -53 18 -68 30 -25 20 l29 -7 -29 28 c-28 26 -31 27 -38 10 -4 -11
-5 -22 -2 -27 6 -9 -33 -45 -41 -37 -3 3 3 11 14 18 16 10 18 18 11 46 -10 47
-15 49 -16 7 -1 -19 -8 -43 -17 -53 -9 -10 -14 -21 -11 -24 3 -4 2 -5 -2 -2
-4 3 -13 -5 -20 -17 -7 -13 -12 -17 -13 -9 0 7 -6 11 -15 7 -18 -7 -19 3 -1
27 10 13 15 14 18 6 2 -7 7 -9 10 -4 3 6 2 19 -1 29 -6 16 -10 14 -29 -18 -12
-20 -27 -36 -34 -37 -7 0 -25 -2 -40 -3 -32 -2 -35 9 -12 35 9 10 13 23 9 28
-12 21 -54 11 -90 -21 -35 -30 -36 -33 -30 -82 10 -69 20 -86 54 -86 15 0 36
-9 46 -20 10 -11 26 -22 36 -25 11 -4 17 -11 14 -16 -11 -17 6 -9 33 17 15 14
49 37 77 51 27 14 56 33 63 42 10 12 12 12 6 1 -7 -13 -6 -13 9 -1 13 10 15
17 6 27 -9 11 -8 14 1 14 8 0 10 8 7 21 -4 16 -3 18 9 8 8 -7 11 -17 6 -26
-11 -20 -2 -80 9 -62 5 8 9 26 9 41 0 40 19 45 27 7 5 -28 7 -30 14 -14 7 19
8 19 8 -2 2 -40 -9 -54 -32 -42 -17 10 -19 9 -14 -5 8 -22 -8 -29 -26 -12 -12
12 -19 13 -41 3 -14 -7 -28 -18 -31 -25 -2 -7 -1 -11 4 -7 5 3 11 2 14 -2 2
-5 3 -3 1 3 -1 6 7 16 18 23 11 7 17 8 13 2 -3 -6 1 -21 9 -33 12 -16 16 -18
16 -7 0 9 6 16 14 16 11 0 12 -6 5 -24 -13 -36 -11 -38 14 -17 l22 19 -20 -24
c-24 -28 -26 -70 -5 -91 8 -8 17 -28 19 -45 3 -29 2 -29 -16 -12 -11 9 -23 14
-26 10 -4 -3 -7 20 -7 53 0 68 -8 87 -30 74 -23 -15 -30 -12 -31 13 0 12 -3
16 -6 10 -2 -7 -9 -13 -15 -13 -6 0 -7 7 -4 16 3 8 2 13 -3 10 -5 -3 -8 -17
-8 -31 0 -14 4 -22 10 -18 6 3 7 1 3 -6 -4 -6 -11 -9 -16 -6 -16 10 -20 -29
-8 -81 7 -30 18 -54 25 -54 7 0 15 -12 18 -27 4 -16 11 -36 16 -46 15 -27 3
-33 -22 -11 -20 18 -22 18 -34 1 -13 -18 -45 -23 -45 -7 0 6 -8 13 -17 17 -25
8 -83 73 -89 100 -7 26 -22 23 -19 -4 4 -49 18 -83 36 -88 24 -8 24 -16 -1
-45 -11 -13 -20 -28 -20 -34 0 -6 -7 -2 -15 8 -8 11 -15 15 -15 9 0 -6 6 -16
14 -22 8 -7 18 -26 21 -42 7 -31 25 -36 69 -19 17 6 27 6 32 -1 3 -6 19 -8 35
-5 16 3 29 1 29 -4 0 -6 13 -10 29 -10 16 0 31 -5 33 -12 4 -10 13 -10 41 -1
22 6 39 7 43 2 9 -15 22 -10 29 11 8 25 18 19 56 -33 l29 -40 -36 -13 c-31
-11 -40 -10 -68 7 -42 24 -116 35 -144 20 -17 -9 -28 -8 -49 3 l-28 14 0 -37
c0 -30 -4 -37 -22 -39 -19 -3 -23 2 -24 25 -3 65 -4 68 -29 71 -14 2 -33 12
-43 23 -10 10 -22 19 -27 19 -6 0 -10 7 -10 16 0 8 -16 22 -35 30 -53 22 -63
19 -62 -21 1 -45 -7 -51 -37 -31 -34 21 -34 21 -41 -17 -12 -64 42 -140 115
-162 30 -9 80 -58 80 -79 0 -21 -17 -29 -37 -18 -14 8 -20 3 -35 -30 -10 -22
-18 -46 -18 -54 0 -8 -4 -14 -10 -14 -5 0 -10 17 -10 38 -1 31 -2 34 -11 19
-10 -18 -11 -18 -25 0 -14 17 -15 16 -8 -7 6 -23 6 -24 -12 -10 -18 14 -18 14
-5 -2 7 -10 19 -18 25 -18 6 0 17 -9 23 -19 11 -17 9 -20 -10 -24 -19 -4 -18
-4 5 -6 15 0 30 -6 33 -11 4 -6 12 -8 18 -4 7 3 3 -2 -8 -12 -16 -13 -17 -16
-3 -11 10 4 21 0 25 -7 17 -29 103 -23 142 10 34 28 74 29 79 2 2 -12 -5 -19
-22 -24 -39 -9 -31 -24 12 -24 38 0 148 -50 137 -62 -3 -3 6 -3 20 -1 43 9 43
-23 -1 -61 -54 -47 -38 -54 19 -10 33 26 47 44 47 61 0 15 5 23 13 21 27 -10
18 -40 -24 -79 -29 -26 -39 -43 -33 -49 7 -7 16 -4 28 9 17 19 18 19 51 0 22
-13 36 -16 40 -9 3 5 -2 13 -12 17 -27 9 -43 24 -38 34 3 4 22 -1 41 -12 49
-27 69 -18 22 11 -27 15 -38 29 -38 45 0 19 7 24 41 30 23 4 57 16 76 27 42
25 54 18 17 -11 -31 -25 -15 -28 22 -5 13 9 27 14 31 11 3 -4 -14 -16 -38 -27
l-44 -20 37 0 c21 0 58 11 84 25 26 14 57 25 70 25 13 0 26 4 29 10 3 6 -1 7
-10 4 -12 -5 -11 1 6 30 19 33 20 42 10 77 -10 32 -16 39 -29 34 -27 -11 -45
-11 -49 0 -2 6 23 16 54 23 77 16 133 60 133 105 0 49 -13 62 -35 37 -23 -25
-41 -26 -41 -1 0 11 3 18 7 15 4 -2 12 3 19 11 7 8 19 15 27 15 8 0 11 5 8 10
-3 6 -1 10 4 10 6 0 11 -5 11 -12 0 -6 3 -8 6 -5 4 4 1 13 -6 22 -11 13 -15
13 -30 -5 -17 -20 -36 -28 -25 -11 3 5 -4 16 -15 24 -24 17 -16 27 20 27 37 0
61 27 39 44 -243 180 -269 202 -269 223 0 38 -19 76 -35 69 -9 -3 -15 0 -15 8
0 8 7 17 16 20 10 4 14 14 11 26 -3 11 -1 18 4 14 5 -3 9 -13 9 -23 0 -19 29
-51 47 -51 5 0 24 -20 42 -45 38 -53 58 -68 38 -29 -8 16 -18 39 -21 51 -6 19
-4 22 9 17 9 -4 28 -32 42 -63 29 -64 40 -58 19 12 -8 26 -10 45 -6 42 5 -3
14 -22 20 -43 19 -62 32 -92 40 -92 4 0 5 12 3 28 -5 38 26 -40 38 -93 6 -28
7 -6 5 75 l-4 115 15 -70 c8 -38 18 -97 22 -130 12 -102 24 -36 18 101 -2 68
-2 122 3 119 9 -5 23 -180 21 -255 -3 -94 19 -43 35 81 8 63 17 134 20 159 4
25 2 62 -4 82 -7 27 -7 38 1 41 8 3 5 13 -9 28 -11 13 -37 58 -57 99 -33 69
-135 190 -159 190 -5 0 -6 9 -3 20 5 17 2 20 -20 20 -15 0 -38 9 -52 20 -53
41 -133 63 -253 68 -105 4 -117 2 -132 -15z m233 -23 l24 -20 -28 10 c-39 14
-52 13 -39 -3 8 -10 0 -11 -41 -7 -39 4 -53 9 -55 23 -5 27 107 25 139 -3z
m-161 3 c0 -14 -15 -29 -32 -36 -13 -5 -18 -1 -18 12 0 19 12 29 38 30 6 1 12
-2 12 -6z m230 -33 c0 -15 -5 -12 -26 11 -19 22 -19 22 4 10 12 -6 22 -16 22
-21z m55 -10 c3 -5 1 -10 -4 -10 -6 0 -11 5 -11 10 0 6 2 10 4 10 3 0 8 -4 11
-10z m2 -42 c-3 -8 -6 -5 -6 6 -1 11 2 17 5 13 3 -3 4 -12 1 -19z m83 12 c0
-11 -33 -30 -52 -30 -7 1 -3 9 11 20 25 22 41 26 41 10z m-256 -33 c24 -18 39
-107 24 -147 -10 -30 -44 -57 -56 -46 -3 3 0 6 6 6 7 0 20 15 28 34 21 42 12
118 -17 147 -22 22 -12 26 15 6z m262 -14 c-10 -10 -19 5 -10 18 6 11 8 11 12
0 2 -7 1 -15 -2 -18z m-430 -34 l19 -22 -30 15 c-16 9 -37 18 -45 21 -9 3 -5
6 11 6 15 1 34 -8 45 -20z m159 11 c3 -5 2 -10 -4 -10 -5 0 -13 5 -16 10 -3 6
-2 10 4 10 5 0 13 -4 16 -10z m185 -25 c13 -24 7 -46 -13 -44 -9 0 -9 2 1 6
18 7 15 24 -10 50 -15 16 -17 22 -7 18 9 -3 22 -17 29 -30z m-669 8 c-11 -22
-6 -76 8 -81 16 -5 13 -22 -3 -22 -19 0 -39 89 -24 107 16 19 30 16 19 -4z
m803 1 c5 -14 4 -15 -9 -4 -17 14 -19 20 -6 20 5 0 12 -7 15 -16z m-610 -47
c25 -1 41 -8 44 -17 5 -13 3 -13 -11 -2 -9 8 -22 12 -29 9 -8 -4 -7 -6 5 -6
26 -1 20 -18 -13 -35 -16 -8 -30 -11 -30 -7 0 4 10 13 23 18 18 8 11 10 -32 8
-56 -3 -72 -15 -64 -46 8 -28 -16 -23 -29 6 -9 21 -8 28 7 45 10 11 22 17 27
14 4 -3 8 -2 7 3 -4 21 3 25 29 19 15 -4 45 -8 66 -9z m427 -107 c-22 -19 -41
-19 -41 0 0 4 8 6 19 3 10 -3 22 0 25 6 4 6 10 11 14 11 4 -1 -4 -9 -17 -20z
m254 -42 c8 -30 -7 -37 -35 -17 -12 9 -12 10 4 5 16 -6 18 -3 12 26 -8 39 9
26 19 -14z m-85 12 c0 -5 -2 -10 -4 -10 -3 0 -8 5 -11 10 -3 6 -1 10 4 10 6 0
11 -4 11 -10z m-56 -16 c5 -14 4 -15 -9 -4 -17 14 -19 20 -6 20 5 0 12 -7 15
-16z m76 -26 c0 -11 -8 -10 -31 2 -15 8 -19 7 -19 -5 0 -8 -6 -15 -13 -15 -23
0 -26 11 -9 29 14 13 23 15 45 7 15 -6 27 -14 27 -18z m-242 -3 c-3 -3 -9 2
-12 12 -6 14 -5 15 5 6 7 -7 10 -15 7 -18z m132 -16 c0 -14 -7 -19 -27 -18
-27 1 -27 1 -4 8 21 6 22 8 7 20 -8 7 -13 17 -10 23 9 13 34 -11 34 -33z m250
11 c13 -9 13 -10 0 -9 -8 0 -24 4 -35 9 l-20 9 20 0 c11 0 27 -4 35 -9z m-691
-32 c-8 -16 -8 -19 1 -13 9 6 10 -1 5 -26 -4 -24 -3 -30 4 -20 8 12 11 10 16
-12 4 -15 11 -24 16 -21 5 3 9 -2 9 -10 0 -22 -16 -20 -39 5 -32 35 -41 142
-10 124 5 -4 5 -14 -2 -27z m379 -9 c-1 -12 -10 -24 -18 -26 -11 -3 -11 -2 -3
4 7 5 9 14 3 22 -4 8 -6 21 -3 28 8 22 25 -1 21 -28z m191 -17 c1 -7 -3 -10
-9 -7 -5 3 -10 18 -9 33 0 24 1 25 9 7 5 -11 9 -26 9 -33z m-601 -42 c1 -23 0
-23 -8 -5 -5 11 -8 34 -8 50 0 29 0 29 8 5 4 -14 8 -36 8 -50z m672 25 c0 -5
-5 -3 -10 5 -5 8 -10 20 -10 25 0 6 5 3 10 -5 5 -8 10 -19 10 -25z m45 25 c3
-5 1 -10 -4 -10 -6 0 -11 5 -11 10 0 6 2 10 4 10 3 0 8 -4 11 -10z m-171 -26
c3 -8 2 -12 -4 -9 -6 3 -10 10 -10 16 0 14 7 11 14 -7z m-237 -71 c-3 -10 -5
-2 -5 17 0 19 2 27 5 18 2 -10 2 -26 0 -35z m-46 10 c0 -4 7 -18 15 -31 16
-25 11 -44 -10 -36 -8 3 -16 -4 -19 -16 -5 -18 -8 -19 -31 -9 -14 7 -26 17
-26 23 0 6 5 5 12 -2 19 -19 30 -14 18 7 -14 27 -13 31 6 24 14 -5 15 -3 4 18
l-11 24 21 -25 21 -25 -7 35 c-3 19 -3 32 1 28 4 -3 7 -10 6 -15z m328 -48
c-1 -29 -1 -29 -9 -5 -4 14 -8 34 -9 45 -1 16 1 17 9 5 5 -8 9 -28 9 -45z
m-399 -60 c6 4 10 1 10 -4 0 -21 -35 -10 -54 16 -11 14 -14 23 -8 19 7 -4 12
-2 12 6 1 7 8 0 16 -15 8 -15 19 -25 24 -22z m-104 -32 c7 -21 12 -39 10 -40
-8 -9 -66 12 -66 23 0 17 22 18 38 2 15 -15 15 -12 2 31 -12 44 0 32 16 -16z
m-59 -58 c0 -10 -6 -14 -14 -10 -8 3 -22 5 -31 6 -10 1 -7 4 8 9 36 12 37 11
37 -5z m40 -1 c-3 -3 -12 -4 -19 -1 -8 3 -5 6 6 6 11 1 17 -2 13 -5z m348
-132 c-11 -11 -55 23 -55 42 0 18 3 17 30 -9 16 -16 28 -31 25 -33z m72 -24
l-32 -26 -12 21 c-14 26 -6 32 40 32 l35 0 -31 -27z m-117 -59 c0 -14 -18 -20
-23 -7 -4 10 -7 11 -18 1 -7 -7 -21 -13 -31 -13 -10 0 -21 -7 -25 -16 -4 -11
-8 -12 -13 -4 -5 8 -13 1 -24 -20 -8 -18 -13 -36 -10 -41 3 -5 0 -8 -7 -7 -7
2 -15 -8 -19 -22 -10 -40 -23 -6 -15 40 4 25 11 38 18 33 7 -4 8 0 4 11 -6 14
-3 16 13 11 11 -4 20 -2 20 4 0 6 9 11 20 11 10 0 24 8 29 18 9 15 12 15 21 2
8 -13 14 -8 12 11 -1 3 10 4 23 1 14 -2 25 -8 25 -13z m30 -17 c0 -5 -7 -9
-15 -9 -8 0 -12 4 -9 9 3 4 9 8 15 8 5 0 9 -4 9 -8z"/>
<path d="M2348 3165 c-7 -34 -6 -37 8 -27 6 4 8 18 4 32 -6 25 -6 25 -12 -5z"/>
<path d="M2311 2916 c-9 -10 -9 -16 -1 -21 17 -10 37 12 24 25 -8 8 -15 6 -23
-4z"/>
<path d="M1986 2871 c-25 -27 -12 -59 29 -77 43 -18 61 -10 69 29 7 36 -5 52
-50 61 -23 5 -35 2 -48 -13z"/>
<path d="M2225 2870 c3 -5 8 -10 11 -10 2 0 4 5 4 10 0 6 -5 10 -11 10 -5 0
-7 -4 -4 -10z"/>
<path d="M2280 2870 c0 -5 4 -10 9 -10 6 0 13 5 16 10 3 6 -1 10 -9 10 -9 0
-16 -4 -16 -10z"/>
<path d="M2167 2825 c-4 -8 -2 -17 3 -20 6 -4 10 3 10 14 0 25 -6 27 -13 6z"/>
<path d="M2221 2798 c-14 -23 -14 -23 8 -4 22 20 25 26 13 26 -4 0 -13 -10
-21 -22z"/>
<path d="M2150 2770 c0 -11 4 -20 9 -20 5 0 7 9 4 20 -3 11 -7 20 -9 20 -2 0
-4 -9 -4 -20z"/>
<path d="M1855 2660 c-4 -6 -13 -9 -21 -6 -9 3 -16 -4 -20 -19 -4 -16 -11 -22
-21 -18 -13 5 -15 0 -11 -26 3 -23 1 -31 -8 -27 -25 9 -24 -12 0 -31 13 -11
36 -37 50 -58 31 -45 34 -39 6 15 -19 37 -19 40 -3 40 10 0 14 4 8 8 -5 4 -17
16 -25 26 -14 18 -13 19 2 13 12 -4 15 -2 12 7 -3 7 7 28 22 45 14 18 24 34
21 37 -3 3 -8 0 -12 -6z"/>
<path d="M3298 2654 c-17 -26 -27 -103 -19 -145 l9 -44 1 41 c1 23 6 55 12 72
11 33 9 94 -3 76z"/>
<path d="M3242 2575 c-1 -32 4 -57 15 -70 15 -19 15 -19 8 5 -4 14 -11 45 -15
70 l-7 45 -1 -50z"/>
<path d="M3337 2614 c-4 -4 -7 -18 -7 -31 0 -13 -7 -38 -17 -56 -15 -30 -15
-31 0 -18 9 7 22 31 28 53 11 41 9 65 -4 52z"/>
<path d="M1987 2592 c-10 -10 -17 -23 -17 -28 0 -5 5 -2 10 6 7 12 10 11 17
-6 8 -19 9 -19 25 -2 10 10 13 20 8 23 -6 4 -10 1 -10 -4 0 -6 -4 -11 -10 -11
-18 0 -10 17 13 28 21 10 21 11 1 11 -11 1 -28 -7 -37 -17z"/>
<path d="M2286 2469 c3 -6 8 -8 11 -5 3 3 15 0 27 -6 16 -8 18 -8 10 1 -14 15
-57 24 -48 10z"/>
<path d="M3241 2399 c-26 -28 -61 -103 -61 -130 0 -21 0 -21 19 2 10 13 24 42
31 64 7 22 19 50 26 63 18 28 11 28 -15 1z"/>
<path d="M3177 2372 c-28 -29 -33 -62 -17 -112 6 -20 8 -14 9 27 1 40 7 58 27
82 32 39 17 41 -19 3z"/>
<path d="M1865 2372 c3 -7 5 -16 5 -18 0 -3 5 -2 11 2 7 4 10 1 7 -7 -3 -8 2
-20 10 -28 12 -12 15 -12 23 0 12 19 11 2 -1 -21 -7 -14 -6 -20 8 -25 16 -7
16 -8 0 -14 -15 -5 -14 -7 6 -17 16 -8 23 -7 23 0 0 6 3 24 7 39 4 19 3 27 -7
27 -9 0 -12 9 -9 29 5 35 -14 50 -33 25 -14 -18 -14 -18 -15 3 0 16 -6 21 -20
20 -13 -1 -19 -6 -15 -15z"/>
<path d="M3273 2348 c-11 -13 -29 -36 -39 -53 -10 -16 -27 -41 -38 -55 l-21
-25 28 25 c16 14 36 39 44 55 8 17 25 40 36 53 11 12 18 22 15 22 -2 0 -14
-10 -25 -22z"/>
<path d="M3016 2146 c-21 -18 -37 -38 -35 -44 3 -8 20 3 43 27 49 50 44 61 -8
17z"/>
<path d="M3095 2168 c-28 -15 -84 -69 -97 -92 -10 -18 28 9 106 76 32 28 27
36 -9 16z"/>
<path d="M3093 2095 c-19 -19 -54 -41 -80 -50 -47 -15 -47 -15 -8 -9 21 3 51
14 65 24 33 24 76 70 64 69 -5 0 -24 -16 -41 -34z"/>
<path d="M2270 2000 c8 -5 11 -12 7 -16 -4 -4 -13 -2 -19 4 -14 14 -52 16 -44
3 4 -5 0 -12 -6 -14 -7 -3 3 -6 23 -6 20 -1 39 -4 43 -8 4 -5 20 -8 34 -8 19
0 26 -5 24 -15 -1 -10 4 -7 16 7 18 20 19 20 32 3 12 -16 14 -16 29 -1 12 11
13 19 6 27 -7 9 -12 9 -17 0 -5 -7 -13 -4 -23 12 -20 27 -58 31 -48 5 6 -17 5
-17 -14 0 -11 9 -28 17 -39 17 -16 0 -16 -2 -4 -10z"/>
<path d="M2671 1947 c2 -1 13 -9 24 -17 19 -14 19 -14 6 3 -7 9 -18 17 -24 17
-6 0 -8 -1 -6 -3z"/>
<path d="M2805 1925 c-40 -18 -16 -19 26 0 19 8 27 14 19 14 -8 0 -28 -6 -45
-14z"/>
<path d="M2438 1903 c7 -3 16 -2 19 1 4 3 -2 6 -13 5 -11 0 -14 -3 -6 -6z"/>
<path d="M2748 1903 c7 -3 16 -2 19 1 4 3 -2 6 -13 5 -11 0 -14 -3 -6 -6z"/>
</g>
</svg>
